<?xml version="1.0" encoding="utf-8"?>
<!-- Generator: Adobe Illustrator 18.1.1, SVG Export Plug-In . SVG Version: 6.00 Build 0)  -->
<svg version="1.1" id="Layer_1" xmlns="http://www.w3.org/2000/svg" xmlns:xlink="http://www.w3.org/1999/xlink" x="0px" y="0px"
	 viewBox="0 0 558.6 558.6" enable-background="new 0 0 558.6 558.6" xml:space="preserve">
<g>
	<path fill="#8BC37B" d="M198.2,326.1c0,0,4.8-1.5,4.8-4.3c0-2.4-1.4-3.4-6.3-7.7c-15.4-12.5-22.6-29.3-22.6-48.6
		c0-77.4,117.5-189.2,286.1-197.4C411.5,26.3,348.3,1,279.2,1C125.3,1,0.5,125.7,0.5,279.6c0,63.4,21.4,121.7,57.1,168.6
		C66.7,398,124.4,351.7,198.2,326.1z"/>
	<path fill="#7FAE71" d="M493.2,101.3c-72.8,10.4-132,69.1-132,113.7c0,20.2,14,35.1,47.1,35.1c12.5,0,16.4,18.3,16.4,30.8
		c0,23.1-9.6,24.5-27.4,28.4c-54.8,11.5-89,48.1-89,77.4c0,26,19.2,39.4,45.2,39.4c26.9,0,61.1-14.9,88-46.2c0,0,2.4-1.9,5.3-1.9
		c3.8,0,6.7,4.3,6.7,7.2c-81.8,114.5-187.1,155.8-268.9,155.8c-0.4,0-0.8,0-1.2,0c29.9,11,62,17.2,95.7,17.2
		c153.9,0,278.6-124.7,278.6-278.6C557.8,211.8,533.5,149.6,493.2,101.3z"/>
</g>
<g>
</g>
<g>
</g>
<g>
</g>
<g>
</g>
<g>
</g>
<g>
</g>
</svg>
